<svg width="75" height="47" viewBox="0 0 75 47" fill="none" xmlns="http://www.w3.org/2000/svg">
<g clip-path="url(#clip0_2_639)">
<path d="M74.9562 10.2285C74.8294 9.35456 74.4342 8.61629 73.8415 8.15154C73.2404 7.68061 72.421 7.52227 71.6722 7.68061C71.7513 7.48114 71.8053 7.26727 71.8282 7.04312C71.8948 6.39328 71.6972 5.77018 71.2854 5.33421C70.8549 4.87768 70.206 4.6597 69.5487 4.75635C69.1827 4.80982 68.8479 4.95377 68.5504 5.17381C68.6607 4.29982 68.4901 3.40732 67.654 2.58269C67.0966 2.03362 66.2065 1.81358 65.2747 1.9966C64.6383 2.12205 64.0497 2.40995 63.5131 2.70608C63.3509 1.38584 62.2465 0.211613 60.8967 0.0244764C59.5698 -0.160603 58.2034 0.645522 57.6647 1.84237C57.4297 1.55858 57.1884 1.3077 56.8931 1.1C56.3607 0.72778 55.7534 0.596167 55.2272 0.740118C54.728 0.8779 54.2933 1.26451 54.0375 1.80124C53.9814 1.9164 53.9398 2.03568 53.9023 2.15495C53.1037 1.45987 51.8329 1.31387 50.9178 1.86911C50.0984 2.36882 49.6574 3.37442 49.7677 4.3101C49.1188 4.07567 48.3201 4.18877 47.7419 4.65764C47.0473 5.22111 46.7062 6.19381 46.8539 7.19529C46.9683 7.97468 47.3655 8.77258 48.0331 9.56637C48.8526 10.5411 49.8842 11.3185 50.8783 12.067L51.1612 12.2809C52.2094 13.0726 53.295 13.9384 54.0417 15.0283C54.8258 16.1696 55.1149 17.4343 54.8549 18.5222C54.8507 18.5325 54.8487 18.5469 54.8466 18.5592C54.8424 18.5715 54.8424 18.5859 54.8383 18.5983C53.243 20.4614 51.3192 22.1066 49.0065 23.579C49.3704 22.668 49.6304 21.6007 49.7448 20.482C50.9511 19.6841 51.4669 18.0636 51.3421 16.8297C51.3275 16.6796 51.1944 16.5706 51.0384 16.583C50.8866 16.5973 50.7743 16.7331 50.7889 16.8832C50.8825 17.8168 50.5622 19.0013 49.801 19.7375C49.8737 18.0718 49.6138 16.3547 48.915 14.9234C49.1458 14.7116 49.2935 14.4134 49.2997 14.0803C49.3143 13.4263 48.7839 12.8834 48.1246 12.8711C47.8043 12.8649 47.5007 12.9821 47.2698 13.2001C47.039 13.4201 46.9079 13.7142 46.9017 14.0309C46.8892 14.652 47.3634 15.1743 47.979 15.236C48.0102 15.2401 48.0435 15.2422 48.0768 15.2422C48.1995 15.2442 48.316 15.2236 48.4304 15.1907C49.7656 17.9464 49.3621 21.8207 48.1641 24.1013C45.6455 25.6005 42.6901 26.9166 39.2085 28.097C39.0213 28.1607 38.8279 28.2162 38.6386 28.2779C41.1822 24.1712 40.7725 17.8867 38.9922 13.8088C38.9922 13.8088 38.9901 13.8068 38.9901 13.8047C38.9735 13.7677 38.9485 13.7368 38.9173 13.7101C38.909 13.7019 38.8965 13.6998 38.8882 13.6937C38.8695 13.6813 38.8528 13.6669 38.83 13.6587C38.8237 13.6566 38.8154 13.6587 38.8092 13.6566C38.8029 13.6566 38.7988 13.6505 38.7946 13.6505C38.7842 13.6505 38.7759 13.6505 38.7676 13.6505C38.7384 13.6464 38.7093 13.6484 38.6823 13.6546C38.6698 13.6566 38.6594 13.6587 38.649 13.6628C38.6199 13.6731 38.5929 13.6875 38.5679 13.708C38.5617 13.7122 38.5533 13.7142 38.5492 13.7183C38.545 13.7224 38.5409 13.7266 38.5367 13.7307C38.5367 13.7307 38.5325 13.7348 38.5305 13.7368C36.8001 15.3532 35.6853 18.004 35.548 20.8336C35.4108 23.6756 36.1803 26.6842 37.5197 28.6358C35.2298 29.3514 32.9004 29.9745 30.5918 30.5606C29.9471 30.7251 29.3003 30.8876 28.6618 31.048C26.9979 31.4654 25.3133 31.887 23.6307 32.3435C24.369 31.595 25.0138 30.647 25.5317 29.5427C26.6111 28.8825 27.5054 28.1134 28.2188 27.2436C28.2209 27.2436 28.225 27.2415 28.2271 27.2394C28.2541 27.2168 30.9745 25.0411 33.2602 25.8493C33.4037 25.9028 33.5639 25.8267 33.6159 25.6827C33.6679 25.5408 33.593 25.3825 33.4474 25.3311C31.8543 24.7676 30.1509 25.4277 29.0528 26.0385C29.866 24.6236 30.2778 22.9867 30.2882 21.138C31.0515 20.9755 31.6359 20.3133 31.6525 19.5072C31.6629 19.0507 31.4924 18.6188 31.1721 18.2898C30.8539 17.9608 30.4255 17.7757 29.9617 17.7654C29.4999 17.7551 29.0632 17.9238 28.7304 18.2404C28.3976 18.5571 28.2084 18.9808 28.2001 19.4373C28.1897 19.8938 28.3602 20.3257 28.6805 20.6547C28.9633 20.9467 29.3336 21.1236 29.735 21.1688C29.71 24.381 28.458 26.8323 25.9185 28.6296C26.401 27.3525 26.6901 25.9912 26.7484 24.6936C27.3099 24.564 27.7383 24.0746 27.7508 23.4782C27.7571 23.1368 27.6302 22.814 27.391 22.5672C27.1518 22.3204 26.8336 22.1847 26.4842 22.1744C26.139 22.1683 25.8124 22.2937 25.5629 22.5302C25.3133 22.7667 25.1719 23.0854 25.1656 23.4268C25.1594 23.7682 25.2862 24.091 25.5254 24.3378C25.7084 24.5249 25.9393 24.6463 26.191 24.6997C26.1182 26.2092 25.7251 27.8111 25.0658 29.2424C24.3815 30.7313 23.4602 31.922 22.3995 32.689C20.6961 33.1682 18.999 33.6905 17.331 34.2807C17.3102 34.2848 17.2894 34.293 17.2707 34.3013C16.5094 34.5707 15.7545 34.8483 15.0078 35.1506C14.3423 35.42 13.6934 35.7058 13.057 36.0019C13.5416 35.3542 13.9222 34.583 14.178 33.6905C14.9059 31.1364 14.44 28.2224 12.9592 26.0878C12.9551 26.0817 12.9467 26.0776 12.9426 26.0714C12.9301 26.0549 12.9155 26.0426 12.8989 26.0303C12.8843 26.02 12.8719 26.0097 12.8552 26.0015C12.849 25.9973 12.8427 25.9912 12.8344 25.9891C12.8219 25.985 12.8095 25.985 12.797 25.983C12.7866 25.9809 12.7762 25.9727 12.7658 25.9727C12.7596 25.9727 12.7533 25.9727 12.7471 25.9727C12.7221 25.9727 12.6992 25.9727 12.6764 25.9788C12.666 25.9788 12.6576 25.9809 12.6472 25.985C12.6223 25.9932 12.5994 26.0056 12.5765 26.02C12.5682 26.0241 12.5599 26.0261 12.5516 26.0323C10.347 27.8605 9.01798 30.6511 8.99718 33.4972C8.98886 34.6077 9.1906 36.1829 10.1411 37.499C5.79427 39.9668 2.29811 43.0946 0.0435985 46.5782C-0.0395939 46.7057 -0.00215729 46.8764 0.128871 46.9566C0.166307 46.9813 0.207903 46.9936 0.2495 46.9977C0.35141 47.008 0.453321 46.9628 0.511556 46.8723C3.49608 42.2597 8.7164 38.2743 15.2116 35.6544C15.8689 35.3891 16.5344 35.1403 17.2041 34.8997C18.3917 39.1689 21.4636 41.5132 26.8607 42.2535C26.8627 42.2535 26.8669 42.2535 26.8711 42.2535C26.9189 42.2576 26.9667 42.2474 27.0104 42.2289C27.0229 42.2227 27.0333 42.2145 27.0458 42.2062C27.0645 42.1939 27.0853 42.1857 27.1019 42.1692C27.1102 42.161 27.1123 42.1466 27.1206 42.1363C27.1269 42.1281 27.1352 42.126 27.1394 42.1178C27.1456 42.1055 27.1477 42.0911 27.1518 42.0787C27.1581 42.0643 27.1622 42.052 27.1664 42.0376C27.1726 42.0088 27.1726 41.98 27.1706 41.9512C27.1706 41.943 27.1726 41.9348 27.1706 41.9266C26.584 38.955 25.0533 35.4734 18.5726 34.4185C21.9398 33.2936 25.411 32.4237 28.797 31.5744C29.4271 31.4161 30.0656 31.2536 30.7041 31.0932C32.108 30.8506 33.568 31.0089 35.0489 31.56C37.0621 32.5924 37.3034 36.2405 36.5047 38.2681C36.4819 38.2681 36.4611 38.2599 36.4403 38.2599C35.6146 38.2435 34.9303 38.8933 34.9137 39.7076C34.897 40.4829 35.4898 41.1328 36.2572 41.2109C36.2968 41.215 36.3384 41.2171 36.3779 41.2191C37.2036 41.2356 37.8878 40.5858 37.9044 39.7714C37.9169 39.1709 37.5613 38.6486 37.0455 38.4059C37.7069 36.6621 37.6694 33.9722 36.5838 32.2818C37.6632 32.8905 38.6781 33.6926 39.5454 34.6324C39.3811 34.8421 39.2771 35.1012 39.2709 35.385C39.2563 36.0534 39.768 36.6127 40.4273 36.6785C40.4626 36.6826 40.4959 36.6847 40.5312 36.6847C40.8744 36.6908 41.2009 36.5654 41.4505 36.3289C41.698 36.0924 41.8394 35.7757 41.8478 35.4364C41.854 35.0971 41.7271 34.7742 41.49 34.5275C41.2529 34.2828 40.9347 34.145 40.5874 34.1347C40.3669 34.1306 40.161 34.1861 39.9759 34.2807C38.6511 32.8371 36.9873 31.6937 35.2652 31.0521C34.506 30.7662 33.7511 30.5832 33.0023 30.4948C34.7057 30.0444 36.4049 29.5591 38.0854 29.0244C38.0875 29.0244 38.0916 29.0244 38.0937 29.0224C38.5263 28.8846 38.961 28.755 39.3894 28.609C40.5812 28.2039 41.7063 27.7823 42.7816 27.3443C43.0083 28.3252 44.0253 31.0439 48.4262 31.8891C49.15 32.0289 49.8155 32.1255 50.427 32.1872C55.4352 32.6911 56.8141 30.8485 56.8765 30.7601C56.8848 30.7477 56.8869 30.7354 56.8931 30.7231C56.8993 30.7107 56.9077 30.6984 56.9118 30.684C56.9201 30.6593 56.9222 30.6346 56.9222 30.61C56.9222 30.6017 56.9264 30.5956 56.9264 30.5873C56.9264 30.5873 56.9264 30.5853 56.9264 30.5832C56.9243 30.5483 56.9139 30.5154 56.8993 30.4845C56.8952 30.4763 56.889 30.4722 56.8848 30.4639C56.8723 30.4454 56.8619 30.4249 56.8453 30.4084C54.1561 27.7494 49.0793 26.1084 45.0091 26.3757C46.2507 25.7958 47.4092 25.1871 48.4865 24.5434C48.4969 24.5393 48.5052 24.5332 48.5156 24.527C49.256 24.0828 49.9653 23.6263 50.6329 23.1492C50.6329 23.1492 50.6329 23.1492 50.635 23.1492C52.2738 21.905 54.2621 21.5842 55.6431 21.5349C56.6144 21.4958 57.6086 21.5657 58.5694 21.6336C58.7836 21.648 59.0041 21.6624 59.2204 21.6768C59.2246 21.6768 59.2287 21.6788 59.2329 21.6788C59.9962 21.6953 61.165 22.0654 61.8347 22.7214C61.8347 22.7214 61.8389 22.7255 61.841 22.7276C61.9387 23.1492 61.7016 25.2673 60.564 27.0544C60.1792 27.659 59.861 28.5371 60.121 29.1828C60.2229 29.4337 60.46 29.7647 61.0174 29.9066C61.0735 29.921 61.1276 29.9293 61.1817 29.9354C61.5852 29.9766 61.9408 29.7833 62.2133 29.4871C62.2382 29.5303 62.2673 29.5714 62.2985 29.6126C62.5689 29.9519 63.0369 30.1431 63.5173 30.1082C63.9478 30.0794 64.3097 29.8614 64.6238 29.4439C64.9087 29.0676 65.0044 28.57 65.0189 28.1381C65.2685 28.2944 65.5659 28.3993 65.8508 28.4178C66.325 28.4466 66.7223 28.2389 66.9407 27.8461C67.3421 27.1263 67.001 26.1187 66.5476 25.4133C66.0734 24.6771 64.2598 22.5487 62.1529 22.267C61.9304 22.0634 61.6725 21.8865 61.3938 21.7343C62.6937 21.6953 63.7898 21.4773 64.7298 21.0783C64.7444 21.0948 64.7569 21.1154 64.7714 21.1318C64.996 21.3621 65.2872 21.504 65.6054 21.5349C65.6429 21.539 65.6782 21.541 65.7157 21.541C66.4582 21.5554 67.0759 20.9693 67.0925 20.2352C67.0987 19.8794 66.9656 19.5422 66.716 19.2851C66.4665 19.0281 66.1316 18.8821 65.7697 18.8738C65.0252 18.8594 64.4095 19.4455 64.3929 20.1797C64.3908 20.3236 64.4158 20.4614 64.4574 20.5951C63.4611 21.0084 62.2673 21.2058 60.8094 21.1914C60.0752 21.1853 59.3265 21.1339 58.6048 21.0825C57.6273 21.0146 56.6186 20.9426 55.6182 20.9817C54.8071 21.0105 53.7921 21.138 52.7522 21.467C53.6652 20.6691 54.5055 19.828 55.2688 18.9376C57.1697 17.895 59.3182 17.5474 61.3585 17.2842C62.4233 17.1464 63.5235 17.1094 64.5863 17.0724C65.3746 17.0457 66.1919 17.0169 66.9947 16.949C69.3616 16.7475 71.1003 16.2087 72.4709 15.2545C74.2429 14.0186 75.2183 12.0423 74.9562 10.2183V10.2285ZM48.0893 14.6931C47.7336 14.691 47.4508 14.3949 47.4591 14.0432C47.4633 13.8726 47.5319 13.7142 47.6567 13.597C47.7815 13.4798 47.9437 13.416 48.1163 13.4201C48.135 13.4201 48.1517 13.4201 48.1683 13.4243C48.499 13.4572 48.7527 13.7368 48.7465 14.07C48.7403 14.4216 48.4449 14.7013 48.0893 14.6931ZM28.7512 19.4476C28.7574 19.1391 28.8843 18.8492 29.111 18.6353C29.3377 18.4214 29.633 18.3063 29.9471 18.3124C29.9804 18.3124 30.0116 18.3145 30.0448 18.3186C30.3215 18.3474 30.5752 18.4687 30.7686 18.6682C30.9849 18.8923 31.1014 19.1844 31.0951 19.4949C31.0889 19.8033 30.96 20.0933 30.7353 20.3072C30.5086 20.521 30.2133 20.6362 29.8993 20.63C29.5852 20.6239 29.294 20.4964 29.0777 20.2743C28.8614 20.0501 28.745 19.7581 28.7512 19.4476ZM25.7168 23.435C25.7209 23.2397 25.802 23.0587 25.9435 22.925C26.0849 22.7893 26.2721 22.7173 26.4697 22.7214C26.4905 22.7214 26.5092 22.7214 26.53 22.7255C26.7047 22.7441 26.8627 22.8201 26.9854 22.9456C27.1227 23.0854 27.1955 23.2705 27.1914 23.4659C27.183 23.8669 26.8461 24.1877 26.4385 24.1795C26.2409 24.1733 26.0579 24.0951 25.9227 23.9553C25.7854 23.8155 25.7126 23.6304 25.7188 23.435H25.7168ZM13.6352 33.5383C13.3669 34.4781 12.9592 35.2781 12.4226 35.9156C11.938 36.4893 11.4056 36.8574 10.7442 37.0919C10.9002 32.4258 12.2646 28.28 12.7824 26.8652C13.9346 28.8167 14.2695 31.3194 13.6372 33.5404L13.6352 33.5383ZM12.0566 27.2579C11.4638 28.9956 10.4198 32.5595 10.2118 36.5695C9.66688 35.5125 9.54001 34.3568 9.54625 33.4992C9.56289 31.2001 10.4863 28.9442 12.0566 27.2579ZM17.9591 35.4755C19.2922 36.734 22.2185 39.3498 25.5358 41.4721C21.4885 40.6351 19.0947 38.737 17.9591 35.4755ZM26.4759 41.4083C22.778 39.1565 19.4669 36.1479 18.1712 34.9161C21.7235 35.4097 25.2758 36.7155 26.4759 41.4083ZM37.3491 39.7652C37.3387 40.2773 36.9082 40.6865 36.3883 40.6762C35.8746 40.668 35.4565 40.2403 35.4669 39.7262C35.4773 39.2141 35.9078 38.8049 36.4278 38.8152C36.9415 38.8213 37.3595 39.2511 37.3491 39.7652ZM40.5749 34.694C40.5957 34.694 40.6144 34.694 40.6352 34.6982C40.8079 34.7146 40.968 34.7928 41.0886 34.9182C41.2238 35.058 41.2966 35.2411 41.2925 35.4364C41.2883 35.6297 41.2093 35.8107 41.0678 35.9444C40.9264 36.078 40.7413 36.15 40.5437 36.1459C40.3482 36.1397 40.1652 36.0636 40.03 35.9238C39.8948 35.784 39.822 35.6009 39.8262 35.4056C39.8304 35.2123 39.9094 35.0313 40.0508 34.8976C40.1922 34.764 40.3773 34.692 40.5749 34.6961V34.694ZM38.1499 28.0127C37.3554 21.2696 38.3142 16.5377 38.7759 14.7733C40.2442 18.7196 40.4626 24.309 38.1499 28.0127ZM38.154 14.9686C37.6715 16.949 36.8791 21.4238 37.5467 27.6178C36.5526 25.7835 35.9869 23.2253 36.1013 20.8604C36.2094 18.6127 36.9602 16.4925 38.154 14.9686ZM65.7614 19.4352C65.7822 19.4352 65.8051 19.4352 65.8259 19.4394C66.2335 19.4805 66.5476 19.826 66.5372 20.2352C66.5289 20.667 66.1649 21.0125 65.7281 21.0043C65.5181 21.0022 65.3184 20.9138 65.1728 20.7637C65.0252 20.6115 64.9482 20.4141 64.9524 20.2043C64.9607 19.7725 65.3247 19.427 65.7614 19.4373V19.4352ZM66.0796 25.7177C66.4582 26.3058 66.7223 27.114 66.4561 27.589C66.3396 27.7967 66.1483 27.8934 65.8862 27.879C65.4994 27.8646 65.0564 27.5746 64.9378 27.2806C64.8837 27.1469 64.7361 27.077 64.5946 27.1202C64.4553 27.1634 64.3742 27.3052 64.4095 27.4471C64.4886 27.7721 64.5406 28.646 64.1787 29.1231C63.9603 29.4131 63.744 29.5488 63.4778 29.5673C63.1804 29.5879 62.8892 29.4748 62.7353 29.2794C62.6167 29.1293 62.5897 28.9504 62.6542 28.7468C62.6999 28.6049 62.623 28.4507 62.4795 28.4034C62.336 28.3561 62.18 28.4301 62.1301 28.572C61.9886 28.9607 61.6101 29.4974 61.1546 29.3802C60.8843 29.3123 60.7158 29.1828 60.6347 28.9854C60.4621 28.5576 60.7096 27.8564 61.0319 27.3525C61.9034 25.985 62.2923 24.4509 62.3817 23.4494C62.7395 24.1363 62.8414 25.111 62.5523 26.8837C62.5273 27.0338 62.6313 27.1736 62.781 27.1983C62.7873 27.1983 62.7914 27.1983 62.7977 27.2004C62.9433 27.2148 63.0764 27.1161 63.0993 26.97C63.328 25.5737 63.3447 24.5805 63.1138 23.7928C63.3863 24.1712 63.6379 24.6751 63.7856 25.3475C63.8106 25.4668 63.9125 25.5511 64.0289 25.5634C64.056 25.5655 64.0872 25.5634 64.1163 25.5593C64.266 25.5285 64.3617 25.3825 64.3305 25.2324C64.1392 24.346 63.7814 23.7106 63.4091 23.2602C64.7132 23.9491 65.7469 25.1994 66.0796 25.7136V25.7177ZM54.5408 2.03773C54.7259 1.65112 55.0379 1.36322 55.3748 1.27068C55.7347 1.17197 56.1818 1.27479 56.5707 1.5483C56.9368 1.8033 57.2259 2.16729 57.5399 2.58063C57.6065 2.66701 57.7146 2.70608 57.8207 2.68346C57.9268 2.66084 58.01 2.58063 58.0328 2.47576C58.3011 1.2933 59.6073 0.413144 60.8177 0.569434C62.0323 0.736006 63.0369 1.94519 62.9703 3.15438C62.9641 3.25515 63.0161 3.34974 63.1013 3.40321C63.1887 3.45668 63.2968 3.45668 63.3863 3.40732C64.0185 3.04745 64.6716 2.67317 65.3787 2.53334C65.9569 2.41818 66.7535 2.4737 67.2568 2.9693C68.4194 4.11474 68.0534 5.38357 67.5376 6.68941C66.2315 10.0003 61.8389 13.5641 58.6277 15.8694C61.5186 12.6469 62.2195 9.66302 62.2569 9.49851C62.2902 9.35044 62.1945 9.20444 62.0448 9.17153C61.893 9.14069 61.7474 9.23323 61.7141 9.38129C61.7037 9.42653 60.7532 13.4839 56.5042 17.1814C58.6901 13.2803 57.9601 7.96852 57.9247 7.71146C57.9018 7.56134 57.7583 7.45852 57.6106 7.47908C57.4588 7.49965 57.3527 7.63948 57.3756 7.78961C57.3839 7.84924 58.0703 12.8546 56.1881 16.5912C56.2317 16.3876 56.2671 16.1943 56.2941 16.0277C56.6165 13.9939 56.1943 12.0835 55.6931 10.3211C55.5745 9.90774 55.4518 9.4944 55.327 9.08311C54.7634 7.21586 54.179 5.2828 54.2809 3.29216C54.2996 2.922 54.3453 2.44491 54.5408 2.03568V2.03773ZM51.5002 11.847L51.2152 11.6331C50.244 10.901 49.2394 10.1442 48.4595 9.21678C47.8584 8.50113 47.5028 7.79577 47.4029 7.11715C47.2844 6.31719 47.5568 5.51929 48.0934 5.08333C48.6695 4.61651 49.5763 4.63296 50.0297 5.12034C50.1233 5.22111 50.2772 5.23756 50.3916 5.15941C50.506 5.08333 50.5455 4.93526 50.4831 4.81187C50.063 3.96462 50.3958 2.83152 51.2069 2.33797C52.018 1.84443 53.189 2.06241 53.7651 2.81301C53.7464 2.97342 53.7318 3.12765 53.7235 3.26543C53.6174 5.35066 54.2164 7.32896 54.7925 9.24145C54.9173 9.65069 55.04 10.062 55.1565 10.4712C55.6411 12.1739 56.0487 14.0145 55.743 15.9434C55.7305 16.0195 55.718 16.0997 55.7035 16.184C55.6535 11.7585 52.2718 9.26819 52.2302 9.2394C52.1075 9.15097 51.9328 9.1777 51.8433 9.30109C51.7539 9.42448 51.7809 9.59516 51.9036 9.68565C52.0534 9.79464 55.0088 11.9806 55.1481 15.9496C54.9838 15.5321 54.7717 15.1188 54.4992 14.7198C53.7048 13.562 52.5796 12.6654 51.496 11.8449L51.5002 11.847ZM48.5302 31.3585C44.7907 30.6408 43.705 28.5679 43.3951 27.5417C44.7699 28.3437 48.5843 30.3282 53.3803 30.8115C54.1748 30.8917 54.9942 30.9308 55.8345 30.9143C54.9256 31.4572 52.8188 32.1811 48.5302 31.3564V31.3585ZM55.9593 30.3652C50.1732 30.5071 45.3335 28.0312 43.7238 27.0975C47.5256 26.3716 52.9747 27.8276 55.9593 30.3652ZM72.1527 14.8165C70.8673 15.711 69.2118 16.219 66.949 16.4123C66.1607 16.4801 65.3517 16.5069 64.5697 16.5336C63.4944 16.5706 62.3817 16.6097 61.2898 16.7495C59.9816 16.9182 58.5486 17.1382 57.1552 17.57C57.2571 17.5001 57.3611 17.4302 57.4692 17.3562C61.8056 14.9049 66.4706 14.9851 66.5226 14.9872C66.6765 14.9913 66.8034 14.872 66.8076 14.7198C66.8117 14.5676 66.6953 14.4401 66.5372 14.4381C66.3646 14.434 63.3488 14.3805 59.8714 15.6473C63.0077 13.3132 66.8263 10.0167 68.0596 6.88888C68.122 6.73054 68.1844 6.56808 68.2405 6.40356C68.5567 5.77429 69.0496 5.37945 69.6278 5.29514C70.1041 5.22522 70.572 5.37945 70.8777 5.70437C71.1814 6.02518 71.3249 6.49199 71.275 6.98348C71.2292 7.4359 71.0254 7.83485 70.7114 8.09396C70.6781 8.11864 70.6448 8.14331 70.6115 8.17005C70.4951 8.26464 70.4763 8.43121 70.5658 8.54843C70.6573 8.66565 70.8258 8.69033 70.9485 8.60601C70.9838 8.58134 71.0192 8.5546 71.0525 8.52787C71.7596 8.0261 72.8099 8.04049 73.4941 8.57928C73.9746 8.95766 74.299 9.57048 74.4051 10.3046C74.6401 11.9272 73.7541 13.6978 72.1506 14.8144L72.1527 14.8165Z"/>
</g>
<defs>
<clipPath id="clip0_2_639">
<rect width="75" height="47" fill="white"/>
</clipPath>
</defs>
</svg>
