<svg width="30" height="30" viewBox="0 0 30 30" fill="none" xmlns="http://www.w3.org/2000/svg">
<path d="M11.12 11C11.4335 10.1089 12.0522 9.35748 12.8666 8.87885C13.681 8.40022 14.6385 8.22526 15.5696 8.38495C16.5006 8.54465 17.3451 9.0287 17.9534 9.75138C18.5618 10.474 18.8947 11.3887 18.8933 12.3333C18.8933 15 14.8933 16.3333 14.8933 16.3333M15 21.6667H15.0133M28.3333 15C28.3333 22.3638 22.3638 28.3333 15 28.3333C7.63619 28.3333 1.66666 22.3638 1.66666 15C1.66666 7.63621 7.63619 1.66667 15 1.66667C22.3638 1.66667 28.3333 7.63621 28.3333 15Z" stroke="#1E1E1E" stroke-width="3" stroke-linecap="round" stroke-linejoin="round"/>
</svg>
