<svg width="19" height="11" viewBox="0 0 19 11" fill="none" xmlns="http://www.w3.org/2000/svg">
<path d="M17.625 1.01551C17.3205 0.712849 16.9087 0.542969 16.4794 0.542969C16.0501 0.542969 15.6382 0.712849 15.3338 1.01551L9.50001 6.76801L3.74751 1.01551C3.44304 0.712849 3.03118 0.542969 2.60188 0.542969C2.17258 0.542969 1.76072 0.712849 1.45626 1.01551C1.30395 1.16657 1.18306 1.3463 1.10056 1.54432C1.01806 1.74234 0.975586 1.95474 0.975586 2.16926C0.975586 2.38378 1.01806 2.59617 1.10056 2.79419C1.18306 2.99221 1.30395 3.17194 1.45626 3.32301L8.34626 10.213C8.49732 10.3653 8.67705 10.4862 8.87507 10.5687C9.07309 10.6512 9.28549 10.6937 9.50001 10.6937C9.71453 10.6937 9.92692 10.6512 10.1249 10.5687C10.323 10.4862 10.5027 10.3653 10.6538 10.213L17.625 3.32301C17.7773 3.17194 17.8982 2.99221 17.9807 2.79419C18.0632 2.59617 18.1057 2.38378 18.1057 2.16926C18.1057 1.95474 18.0632 1.74234 17.9807 1.54432C17.8982 1.3463 17.7773 1.16657 17.625 1.01551Z" fill="#A35BA5"/>
</svg>
