<svg width="48" height="49" viewBox="0 0 48 49" fill="none" xmlns="http://www.w3.org/2000/svg">
<path fill-rule="evenodd" clip-rule="evenodd" d="M24 48.1143C37.2548 48.1143 48 37.3691 48 24.1143C48 10.8594 37.2548 0.114258 24 0.114258C10.7452 0.114258 0 10.8594 0 24.1143C0 37.3691 10.7452 48.1143 24 48.1143ZM22.008 32.3703C22.0966 32.2445 22.1927 32.1243 22.296 32.0103C22.5191 31.7853 22.7845 31.6068 23.077 31.4849C23.3694 31.3631 23.6831 31.3003 24 31.3003C24.3168 31.3003 24.6305 31.3631 24.9229 31.4849C25.2154 31.6068 25.4808 31.7853 25.704 32.0103C25.9264 32.2345 26.1024 32.5005 26.2218 32.7929C26.3412 33.0853 26.4018 33.3984 26.4 33.7143C26.4114 34.0247 26.3625 34.3344 26.256 34.6263C26.1482 34.9241 25.9762 35.1946 25.7522 35.4185C25.5283 35.6425 25.2578 35.8145 24.96 35.9223C24.6727 36.0492 24.362 36.1148 24.048 36.1148C23.7339 36.1148 23.4232 36.0492 23.136 35.9223C22.8381 35.8145 22.5676 35.6425 22.3437 35.4185C22.1197 35.1946 21.9477 34.9241 21.84 34.6263C21.7056 34.3414 21.6398 34.0291 21.648 33.7143C21.6362 33.5545 21.6362 33.394 21.648 33.2343C21.6742 33.0839 21.7228 32.9383 21.792 32.8023C21.8445 32.6493 21.9171 32.504 22.008 32.3703ZM20.3973 13.0777C21.4928 12.4457 22.7353 12.1134 24 12.1143C25.6885 12.1274 27.3186 12.7335 28.6055 13.8267C29.8924 14.9199 30.7542 16.4306 31.0401 18.0948C31.326 19.759 31.018 21.4707 30.1698 22.9307C29.3216 24.3908 27.9872 25.5063 26.4 26.0823V26.5143C26.4 27.1508 26.1471 27.7612 25.697 28.2113C25.2469 28.6614 24.6365 28.9143 24 28.9143C23.3634 28.9143 22.753 28.6614 22.3029 28.2113C21.8528 27.7612 21.6 27.1508 21.6 26.5143V24.1143C21.6 23.4777 21.8528 22.8673 22.3029 22.4172C22.753 21.9671 23.3634 21.7143 24 21.7143C24.6365 21.7143 25.2469 21.4614 25.697 21.0113C26.1471 20.5612 26.4 19.9508 26.4 19.3143C26.4 18.6777 26.1471 18.0673 25.697 17.6172C25.2469 17.1671 24.6365 16.9143 24 16.9143C23.5771 16.9126 23.1612 17.0227 22.7945 17.2334C22.4279 17.4441 22.1234 17.748 21.912 18.1143C21.7619 18.4011 21.5554 18.6546 21.3049 18.8595C21.0543 19.0644 20.7649 19.2166 20.454 19.3068C20.1432 19.3969 19.8173 19.4233 19.496 19.3843C19.1746 19.3453 18.8645 19.2416 18.5843 19.0796C18.304 18.9177 18.0595 18.7007 17.8653 18.4417C17.6711 18.1827 17.5313 17.8872 17.4543 17.5728C17.3773 17.2584 17.3646 16.9317 17.4172 16.6123C17.4697 16.2929 17.5863 15.9874 17.76 15.7143C18.3923 14.619 19.3019 13.7097 20.3973 13.0777Z" fill="#A35BA5"/>
</svg>
